<?xml version="1.0" encoding="utf-8"?>
<!-- Generator: Adobe Illustrator 24.3.0, SVG Export Plug-In . SVG Version: 6.00 Build 0)  -->
<svg version="1.1" id="Layer_1" xmlns="http://www.w3.org/2000/svg" xmlns:xlink="http://www.w3.org/1999/xlink" x="0px" y="0px"
	 viewBox="0 0 512 512" style="enable-background:new 0 0 512 512;" xml:space="preserve">
<g>
	<path d="M6.7,412.4c56,5.1,105.5-8.4,150.2-42c-46.8-4.1-77.9-27.8-95.3-71.4c15.6,2,30.2,2.2,45.3-1.9
		c-56.7-14-82.2-63.6-80.3-101.3c13.9,7.1,28.4,11.7,45.3,12.1c-22.3-16.2-36.5-36.6-42.3-62.5c-5.8-25.8-1.7-50.2,11-73.2
		c1.8,0.1,2.3,1.6,3.2,2.6c42.8,50.4,96.4,82.9,160.9,97.4c14.4,3.3,29.1,4.9,43.8,6.1c3.5,0.3,3-1.2,2.6-3.6
		c-5.4-34.3,2.4-64.9,26.7-90.2C302.4,59,332.8,49,368,54.4c21.5,3.3,39.9,12.9,55.3,28.2c1.9,1.9,3.5,2.4,6.4,1.8
		c20-4.5,39.1-11.5,57-21.6c1.1-0.6,2.2-1,4.1-1.9c-8.1,23.9-22.3,41.7-43.6,55.4c5.5,0.2,10.1-1.1,14.7-2c4.8-0.9,9.5-2,14.2-3.3
		c4.7-1.3,9.3-2.8,13.9-4.4c4.5-1.6,9-3.4,15-5.6c-4.7,6.2-8.3,11.4-12.3,16.3c-10.6,12.8-22.4,24.4-35.8,34.2c-2.1,1.5-3.1,3.2-3,6
		c1.9,63.4-15.7,121.4-50.4,174.1c-31.3,47.6-73.3,82.8-126,104.7c-28.2,11.7-57.7,18.3-88.1,20.8c-36.6,3-72.6-0.3-107.8-10.6
		C55.2,438.9,30.7,427.9,6.7,412.4z"/>
</g>
</svg>
